<svg width="30" height="30" viewBox="0 0 30 30" fill="none" xmlns="http://www.w3.org/2000/svg">
<path d="M29.3657 6.77313C28.9364 6.77203 28.5082 6.77313 28.0656 6.77313C28.0656 6.6293 28.0578 6.52861 28.0667 6.42903C28.0966 6.08493 28.0357 5.79062 27.6883 5.61691C27.2302 5.38787 26.7832 5.13561 26.3207 4.91543C26.178 4.84793 26.1227 4.78376 26.1271 4.62997C26.1371 4.29693 26.1304 3.96389 26.1304 3.63196C26.1293 3.04665 26.0419 2.94597 25.4577 2.84086C23.6996 2.52552 21.9448 2.57199 20.201 2.92605C18.3179 3.30777 16.5719 3.99487 15.1579 5.35911C15.1468 5.37017 15.1203 5.36353 15.1291 5.36353C14.8227 4.90989 14.5604 4.43966 14.2208 4.03249C12.1904 1.5928 9.48742 0.433252 6.41484 0.00837987C6.01763 -0.0458355 5.81294 0.165494 5.80962 0.57045C5.8052 1.01966 5.80852 1.46888 5.80852 1.93358C5.37369 1.93358 4.98201 1.93358 4.59033 1.93469C4.00724 1.93469 3.87336 2.06635 3.87225 2.63727C3.87225 3.29228 3.86561 3.94729 3.87778 4.6023C3.8811 4.78708 3.80808 4.85679 3.65207 4.93202C3.17298 5.16327 2.70496 5.41775 2.23583 5.66891C2.02118 5.78398 1.92382 5.97097 1.93599 6.21881C1.94484 6.39584 1.93709 6.57397 1.93709 6.73994C1.88177 6.75764 1.86407 6.76871 1.84526 6.76871C1.45247 6.77092 1.05969 6.77092 0.665798 6.77313C0.151305 6.77424 0.00193626 6.9225 0.00193626 7.43921V13.8499C0.00193626 13.9307 -0.00580879 14.0125 0.00968132 14.0911C0.059471 14.3511 0.219904 14.5082 0.486555 14.5082C0.753207 14.5071 0.914746 14.3489 0.961217 14.0889C0.97892 13.9904 0.968962 13.8875 0.968962 13.7868C0.970068 11.8816 0.970068 9.97627 0.970068 8.07098V7.75565H1.93709V22.5819C1.93709 23.0909 2.07097 23.2236 2.57993 23.2236H14.4852C14.5803 23.5943 14.514 23.799 14.1522 23.9295C13.7007 24.0922 13.3865 24.4584 13.2239 24.9109C13.1442 25.1322 13.0269 25.1621 12.8277 25.1621C8.98731 25.1577 5.14687 25.1588 1.30643 25.1588H0.970068V24.7583C0.970068 21.7443 0.970068 18.7304 0.968962 15.7165C0.968962 15.2285 0.809635 14.9951 0.47881 15.0006C0.155731 15.0061 0.00193626 15.2307 0.00193626 15.701V25.4387C0.00193626 25.9787 0.145773 26.1269 0.67465 26.1269H13.3754C13.8512 26.1269 13.9718 26.0163 14.0404 25.5449C14.0824 25.2506 14.2097 25.0083 14.5173 24.8291C14.5173 25.2761 14.5272 25.6678 14.5095 26.0594C14.5051 26.1402 14.4155 26.2453 14.3369 26.2907C13.8202 26.5894 13.5547 27.0309 13.5503 27.6261C13.5469 28.2303 13.5458 28.8355 13.5514 29.4407C13.5547 29.8158 13.7339 29.9928 14.1123 29.9961C14.6965 30.0017 15.2807 30.0006 15.866 29.9972C16.2787 29.9939 16.4502 29.8213 16.4524 29.4042C16.4558 28.81 16.4569 28.2148 16.4513 27.6206C16.4458 27.0265 16.1825 26.5817 15.6591 26.2907C15.5949 26.2553 15.4976 26.1955 15.4965 26.1446C15.4832 25.7186 15.4887 25.2927 15.4887 24.8258C15.7996 25.0194 15.9225 25.2617 15.9634 25.5505C16.0298 26.0174 16.1515 26.1269 16.6328 26.1269H23.0435C23.1242 26.1269 23.2072 26.1347 23.2858 26.1192C23.5447 26.0694 23.704 25.9112 23.704 25.6434C23.704 25.3768 23.548 25.2141 23.2869 25.1676C23.1895 25.1488 23.0855 25.1599 22.9848 25.1599C21.0596 25.1588 19.1344 25.1555 17.2092 25.1643C16.9835 25.1643 16.8541 25.1256 16.7667 24.8877C16.6007 24.4341 16.2809 24.0734 15.8273 23.9163C15.4434 23.7846 15.4456 23.5556 15.5142 23.2236H27.3885C27.9594 23.2236 28.0656 23.1152 28.0656 22.531V7.76561H29.026V25.1588H28.6708C27.3708 25.1588 26.0707 25.1577 24.7706 25.1599C24.3933 25.161 24.1588 25.39 24.1997 25.7021C24.2351 25.9764 24.442 26.1258 24.7983 26.1258C26.3207 26.128 27.8432 26.128 29.3645 26.1269C29.8392 26.1258 30.0007 25.9654 30.0007 25.4918V7.40823C30.0007 6.93357 29.8392 6.77424 29.3657 6.77313ZM4.86141 2.92384H5.80852V17.1493C5.80852 17.7822 5.92469 17.8961 6.57196 17.9017C7.76248 17.9105 9.88352 18.4449 10.7488 18.9782C8.80364 18.5921 6.84193 18.716 4.86141 18.8233V2.92384ZM4.43875 22.2433C7.2845 21.2309 10.1303 21.2376 12.9738 22.2433H4.43875ZM2.90523 21.8273V21.4755C2.90523 16.5585 2.90855 11.6403 2.89637 6.72334C2.89637 6.44452 2.98378 6.29847 3.22167 6.19889C3.42414 6.1137 3.61888 6.0108 3.87225 5.8902V19.0955C3.87225 19.7096 4.02826 19.8601 4.64897 19.8379C5.70562 19.7992 6.76226 19.7229 7.81891 19.724C9.21302 19.7262 10.6027 19.8424 11.9072 20.3889C12.4195 20.6036 12.8919 20.9123 13.3633 21.2343C9.80718 20.182 6.32854 20.1798 2.90523 21.8273ZM14.5173 20.3757V20.7718C12.5168 18.2469 9.8116 17.2876 6.79103 16.9568V0.988683C7.39072 1.14248 7.97713 1.2664 8.54695 1.44564C10.252 1.98226 11.7932 2.80545 13.038 4.11769C13.2936 4.38655 13.5248 4.68197 13.7472 4.98071C14.2805 5.69989 14.5472 6.46997 14.5372 7.40823C14.4918 11.73 14.5173 16.0528 14.5173 20.3757ZM15.4821 29.0169H14.5206C14.5206 28.5168 14.5095 28.0278 14.525 27.5398C14.5339 27.2765 14.7563 27.0939 15.0063 27.0973C15.2575 27.0995 15.4699 27.2843 15.4777 27.5509C15.4932 28.0311 15.4821 28.5113 15.4821 29.0169ZM15.4854 21.4766V21.19C15.4854 16.3726 15.4832 11.554 15.4932 6.73662C15.4943 6.5784 15.575 6.38256 15.6857 6.2686C16.9238 4.98071 18.4706 4.28365 20.1977 3.9307C21.7832 3.60651 23.3732 3.53459 24.9764 3.75367C25.0251 3.76141 25.0727 3.77358 25.1413 3.78686V19.2062C21.6449 18.7658 18.3787 19.2228 15.4854 21.4766ZM17.0189 22.2489C19.8625 21.2287 22.7071 21.2387 25.5407 22.2489H17.0189ZM27.0975 21.8572C24.452 20.4841 21.6837 20.3535 18.8479 20.7264C18.8423 20.6976 18.8368 20.6689 18.8313 20.639C19.5925 20.473 20.3471 20.2661 21.1161 20.1477C22.519 19.9309 23.9231 19.9486 25.3194 20.2551C25.949 20.3934 26.1304 20.2241 26.1304 19.5846V5.86143C26.4535 6.03293 26.7434 6.16791 27.0089 6.34052C27.0787 6.38588 27.0941 6.54963 27.0941 6.65917C27.0986 9.02694 27.0975 11.3947 27.0975 13.7614V21.8572Z" fill="white"/>
<path d="M24.0053 14.6203C23.9975 14.8815 23.7973 15.0762 23.5096 15.085C23.2485 15.0939 22.9862 15.0873 22.7251 15.0873C20.8497 15.1348 19.1281 15.6748 17.5714 16.727C17.5127 16.7668 17.4563 16.8089 17.3954 16.8443C17.131 16.997 16.8555 16.9405 16.7072 16.706C16.5667 16.4814 16.6087 16.1981 16.8577 16.0465C17.4408 15.6925 18.0206 15.3229 18.6357 15.033C20.0597 14.3647 21.5733 14.0826 23.1445 14.1036C23.285 14.1058 23.4266 14.1114 23.566 14.1324C23.8393 14.1733 24.013 14.3714 24.0053 14.6203Z" fill="white"/>
<path d="M24.0038 7.86379C23.9827 8.16142 23.7537 8.32074 23.3698 8.30857C23.2392 8.30525 23.1076 8.30857 22.977 8.30857C21.0264 8.31189 19.2306 8.84077 17.6053 9.9284C17.5389 9.97376 17.4736 10.0224 17.405 10.0634C17.1383 10.2205 16.8673 10.1718 16.7135 9.94057C16.5608 9.70932 16.6061 9.42165 16.8728 9.26232C17.4747 8.90052 18.0733 8.52322 18.7084 8.22891C20.1169 7.57722 21.6139 7.30725 23.1629 7.32938C23.2536 7.33048 23.3443 7.33491 23.4351 7.34266C23.8113 7.37364 24.0248 7.56947 24.0038 7.86379Z" fill="white"/>
<path d="M24.0044 11.2593C23.98 11.5381 23.7621 11.7018 23.4235 11.6985C23.1823 11.6963 22.9411 11.6985 22.6999 11.6985C20.8245 11.7538 19.1051 12.2982 17.5494 13.3537C17.4354 13.4312 17.3071 13.512 17.1765 13.5352C16.9431 13.5761 16.7627 13.4633 16.672 13.242C16.5691 12.9875 16.6532 12.7695 16.8789 12.6456C17.6423 12.2252 18.3914 11.7649 19.1903 11.4241C20.4726 10.8786 21.838 10.6894 23.231 10.7193C23.3117 10.7215 23.3925 10.7249 23.4722 10.7326C23.8218 10.7669 24.0298 10.9727 24.0044 11.2593Z" fill="white"/>
</svg>
