<svg width="15" height="15" viewBox="0 0 15 15" fill="none" xmlns="http://www.w3.org/2000/svg">
<path d="M14.7459 0.404875C14.595 0.175485 14.3439 0.079393 14.0911 0H9.05225C8.32601 0.257221 8.12211 0.547841 8.12211 1.3239C8.12211 2.94457 8.12182 4.56553 8.12211 6.1862C8.12211 6.65963 8.11947 7.13335 8.1227 7.60678C8.12738 8.28118 8.59201 8.74436 9.26669 8.75197C9.36425 8.75315 9.4621 8.75227 9.55965 8.75227C10.9802 8.75227 12.4008 8.75285 13.8213 8.75197C14.4309 8.75139 14.8215 8.44876 14.9785 7.86019C14.982 7.84672 14.992 7.83471 14.9993 7.82211V0.937481C14.9164 0.758774 14.8528 0.567469 14.7459 0.404875ZM14.0615 7.56752C14.0615 7.77113 14.0182 7.81449 13.8119 7.81449C12.3137 7.81479 10.8153 7.81479 9.31708 7.81449C9.10293 7.81449 9.05957 7.77113 9.05957 7.55815C9.05928 5.43505 9.05928 3.31224 9.05957 1.18943C9.05957 0.980547 9.10176 0.937481 9.30419 0.937481C10.8074 0.937188 12.3105 0.937188 13.8134 0.937481C14.0231 0.937481 14.0615 0.975567 14.0615 1.18386C14.0618 2.2479 14.0618 3.31165 14.0618 4.37569C14.0618 5.43974 14.0618 6.50348 14.0615 7.56752Z" fill="#60A43A"/>
<path d="M6.87629 7.40761C6.87512 6.73936 6.42689 6.2545 5.77653 6.2507C4.21448 6.24161 2.65214 6.24366 1.09009 6.2507C0.612866 6.25304 0.221476 6.54219 0.0662083 6.96963C0.041307 7.03789 0.0219718 7.1082 0 7.17763V14.0916C0.0442365 14.2032 0.0790984 14.3198 0.13476 14.4252C0.305261 14.749 0.591773 14.9171 0.937463 14.9997H5.94703C6.67884 14.7378 6.87717 14.4525 6.87717 13.6609V11.142C6.87688 9.89721 6.87863 8.65241 6.87629 7.40761ZM5.93941 13.7974C5.93941 14.0239 5.90133 14.062 5.6781 14.0623H1.1979C0.970567 14.062 0.937463 14.0286 0.937463 13.7989C0.93717 12.7398 0.937463 11.6808 0.937463 10.6217C0.937463 9.56762 0.93717 8.51354 0.937463 7.45946C0.937463 7.2207 0.971446 7.18495 1.20347 7.18495C2.69198 7.18466 4.1805 7.18466 5.66901 7.18495C5.90104 7.18495 5.93941 7.22363 5.93941 7.458C5.93971 9.57114 5.93971 11.6843 5.93941 13.7974Z" fill="#60A43A"/>
<path d="M6.876 1.11853C6.87512 0.779281 6.76174 0.476651 6.48842 0.270698C6.32993 0.151462 6.12896 0.0884748 5.94703 0H0.908167C0.813835 0.0360344 0.716866 0.0665026 0.625464 0.109568C0.341588 0.243159 0.152924 0.462881 0.0536112 0.760239C0.0369126 0.810043 0.0178704 0.858967 0 0.908185V4.07219C0.00878872 4.09445 0.020507 4.11613 0.0263661 4.13957C0.162884 4.66924 0.568923 4.99883 1.11968 5.00058C2.66679 5.00527 4.21419 5.00674 5.76159 4.99971C6.40463 4.99678 6.86926 4.52891 6.87483 3.88615C6.88274 2.96391 6.87834 2.04107 6.876 1.11853ZM5.93941 3.81467C5.93912 4.01916 5.89401 4.06427 5.68981 4.06457C4.93838 4.06515 4.18694 4.06486 3.4358 4.06486C2.68905 4.06486 1.9426 4.06515 1.19614 4.06457C0.978184 4.06457 0.937463 4.02443 0.937463 3.81203C0.93717 2.93402 0.93717 2.05572 0.937463 1.17742C0.937463 0.980254 0.979942 0.937481 1.1771 0.937481C2.68466 0.937188 4.19251 0.937188 5.70007 0.937481C5.8943 0.937481 5.93912 0.982598 5.93941 1.18005C5.94 2.05836 5.94 2.93637 5.93941 3.81467Z" fill="#60A43A"/>
<path d="M14.9794 10.8894C14.8226 10.3002 14.4327 9.99876 13.8225 9.9973C13.4223 9.99642 13.0218 9.9973 12.6216 9.9973C11.499 9.9973 10.3761 9.99378 9.25351 9.99876C8.61281 10.0017 8.13646 10.4511 8.12738 11.0833C8.11361 12.0255 8.11684 12.9676 8.1268 13.9098C8.13119 14.3507 8.34271 14.6827 8.73996 14.8839C8.83868 14.9337 8.94825 14.9616 9.05313 14.9996H14.0627C14.3422 14.9302 14.6041 14.8189 14.7658 14.5705C14.8666 14.4158 14.9234 14.2324 15.0002 14.0622V10.9275C14.9928 10.9146 14.9829 10.9028 14.9794 10.8894ZM14.0624 13.8158C14.0624 14.0235 14.0234 14.0619 13.814 14.0619C13.0628 14.0622 12.3114 14.0622 11.56 14.0622H9.3206C9.10205 14.0619 9.06074 14.0226 9.06045 13.8108C9.06016 12.9375 9.06016 12.0642 9.06045 11.1905C9.06074 10.9778 9.10381 10.9348 9.31825 10.9348C10.8161 10.9345 12.314 10.9345 13.8119 10.9348C14.0193 10.9351 14.0624 10.9778 14.0624 11.1809C14.0627 12.0592 14.0627 12.9375 14.0624 13.8158Z" fill="#60A43A"/>
</svg>
