<svg width="30" height="27" viewBox="0 0 30 27" fill="none" xmlns="http://www.w3.org/2000/svg">
<path d="M29.9472 8.0018C29.7829 6.38171 29.2732 4.88849 28.3535 3.53536C26.4907 0.79535 23.0656 -0.551184 19.8394 0.212292C17.989 0.650868 16.542 1.71431 15.3561 3.16645C15.2424 3.3058 15.1331 3.44955 15.0077 3.60943C14.8713 3.43415 14.7679 3.2926 14.6557 3.15838C12.6095 0.693406 10.0323 -0.452908 6.83243 0.16462C3.74479 0.760146 1.68905 2.66187 0.630013 5.56982C-0.541237 8.78508 -0.0403208 11.8434 1.80786 14.6985C2.83903 16.2915 4.10343 17.6901 5.51157 18.945C8.24937 21.3865 11.0282 23.7825 13.7998 26.1859C14.5882 26.8694 15.4676 26.8386 16.2853 26.1353C18.4158 24.3025 20.5471 22.4712 22.6674 20.6267C24.4657 19.0623 26.2083 17.4393 27.6414 15.5192C28.5699 14.2754 29.3135 12.931 29.6839 11.4107C29.824 10.8357 29.8966 10.2446 30 9.66076V8.3135C29.9824 8.21009 29.9582 8.10668 29.9472 8.0018ZM26.7158 13.7818C25.4998 15.6219 23.9391 17.154 22.2985 18.601C19.9494 20.6729 17.5658 22.7044 15.1962 24.7521C15.1383 24.8019 15.0767 24.8467 14.9996 24.9068C14.3792 24.3736 13.7624 23.8514 13.1544 23.3197C11.0018 21.4385 8.83463 19.5742 6.70995 17.6622C5.42502 16.5064 4.25524 15.2332 3.30035 13.7796C1.76019 11.4363 1.31575 8.92296 2.24864 6.25116C3.05099 3.95193 4.63441 2.42498 7.04512 1.90353C9.28127 1.41948 11.2197 2.06341 12.7892 3.72091C13.2754 4.23429 13.6663 4.83788 14.0932 5.40627C14.5831 6.05974 15.4426 6.06194 15.9252 5.40261C16.0345 5.25299 16.1284 5.09238 16.2325 4.93909C16.963 3.86832 17.8372 2.9413 19.0202 2.37364C21.0224 1.41288 23.0106 1.54929 24.8955 2.65747C26.9182 3.84632 27.8929 5.73704 28.1797 8.01427C28.4452 10.1235 27.8731 12.0304 26.7158 13.7818Z" fill="white"/>
</svg>
