<svg width="15" height="15" viewBox="0 0 15 15" fill="none" xmlns="http://www.w3.org/2000/svg">
<path d="M2.39362 4.78723C3.54983 4.78723 4.51655 3.96342 4.73885 2.87234H14.5213C14.7856 2.87234 15 2.65791 15 2.39362C15 2.12932 14.7856 1.91489 14.5213 1.91489H4.73885C4.51655 0.823819 3.54983 0 2.39362 0C1.07339 0 0 1.07401 0 2.39362C0 3.71322 1.07339 4.78723 2.39362 4.78723ZM2.39362 0.957447C3.18526 0.957447 3.82979 1.60198 3.82979 2.39362C3.82979 3.18526 3.18526 3.82979 2.39362 3.82979C1.60198 3.82979 0.957447 3.18526 0.957447 2.39362C0.957447 1.60198 1.60198 0.957447 2.39362 0.957447Z" fill="#DFDFDF"/>
<path d="M14.5213 12.1278H4.73885C4.51655 11.0367 3.54983 10.2129 2.39362 10.2129C1.07339 10.2129 0 11.2869 0 12.6065C0 13.9261 1.07339 15.0001 2.39362 15.0001C3.54983 15.0001 4.51655 14.1763 4.73885 13.0852H14.5213C14.7856 13.0852 15 12.8708 15 12.6065C15 12.3422 14.7856 12.1278 14.5213 12.1278ZM2.39362 14.0427C1.60198 14.0427 0.957447 13.3981 0.957447 12.6065C0.957447 11.8149 1.60198 11.1703 2.39362 11.1703C3.18526 11.1703 3.82979 11.8149 3.82979 12.6065C3.82979 13.3981 3.18526 14.0427 2.39362 14.0427Z" fill="#DFDFDF"/>
<path d="M14.5213 7.02134H12.3984C12.1761 5.93026 11.2094 5.10645 10.0532 5.10645C8.89698 5.10645 7.93026 5.93026 7.70796 7.02134H0.478723C0.214428 7.02134 0 7.23577 0 7.50006C0 7.76436 0.214428 7.97879 0.478723 7.97879H7.70796C7.93026 9.06986 8.89698 9.89368 10.0532 9.89368C11.2094 9.89368 12.1761 9.06986 12.3984 7.97879H14.5213C14.7856 7.97879 15 7.76436 15 7.50006C15 7.23577 14.7856 7.02134 14.5213 7.02134ZM10.0532 8.93623C9.26155 8.93623 8.61702 8.2917 8.61702 7.50006C8.61702 6.70842 9.26155 6.06389 10.0532 6.06389C10.8448 6.06389 11.4894 6.70842 11.4894 7.50006C11.4894 8.2917 10.8448 8.93623 10.0532 8.93623Z" fill="#DFDFDF"/>
</svg>
