<svg width="15" height="17" viewBox="0 0 15 17" fill="none" xmlns="http://www.w3.org/2000/svg">
<path fill-rule="evenodd" clip-rule="evenodd" d="M7.50106 0C5.552 0 3.97198 1.58002 3.97198 3.52907C3.97198 5.47813 5.552 7.05814 7.50106 7.05814C9.45011 7.05814 11.0301 5.47813 11.0301 3.52907C11.0301 1.58002 9.45011 0 7.50106 0ZM4.98029 3.52907C4.98029 2.13689 6.10889 1.00831 7.50106 1.00831C8.89323 1.00831 10.0218 2.13689 10.0218 3.52907C10.0218 4.92125 8.89323 6.04984 7.50106 6.04984C6.10889 6.04984 4.98029 4.92125 4.98029 3.52907Z" fill="#DFDFDF"/>
<path d="M7.49999 8.06641C5.49436 8.06641 3.57084 8.86317 2.15264 10.2814C0.990683 11.4433 0.245923 12.9444 0.014703 14.552C-0.115319 15.456 0.637856 16.1329 1.45015 16.1329H13.5498C14.3621 16.1329 15.1153 15.456 14.9853 14.552C14.7963 13.2381 14.2643 11.9953 13.4418 10.9507C13.2695 10.7319 12.9526 10.6942 12.7338 10.8665C12.515 11.0387 12.4773 11.3557 12.6496 11.5745C13.3623 12.4798 13.8235 13.5568 13.9872 14.6956C14.0158 14.8939 13.8513 15.1245 13.5498 15.1245H1.45015C1.14869 15.1245 0.9842 14.8939 1.01274 14.6956C1.21313 13.3023 1.85862 12.0013 2.86562 10.9943C4.09473 9.7652 5.76177 9.07471 7.49999 9.07471C8.56975 9.07471 9.61254 9.33622 10.5429 9.82393C10.7895 9.9532 11.0942 9.85807 11.2235 9.61143C11.3528 9.36485 11.2576 9.06014 11.0111 8.93088C9.93762 8.36819 8.73435 8.06641 7.49999 8.06641Z" fill="#DFDFDF"/>
</svg>
