<svg width="30" height="30" viewBox="0 0 30 30" fill="none" xmlns="http://www.w3.org/2000/svg">
<path d="M29.8193 17.375C29.034 13.0469 25.091 9.7914 20.6932 9.78826C20.0739 9.78826 19.4538 9.86343 18.8455 9.90336C18.8118 9.33181 18.8126 8.73364 18.7367 8.14643C18.0907 3.17473 13.581 -0.412731 8.56151 0.038246C4.68045 0.386657 1.39443 3.11287 0.357806 6.86788C0.194953 7.45509 0.116659 8.06657 0 8.66709V10.132C0.0461938 10.4295 0.0845581 10.7278 0.138581 11.023C0.525356 13.1393 1.50874 14.9267 3.09263 16.3854C3.17563 16.4613 3.23748 16.6171 3.22808 16.7291C3.15057 17.624 3.05975 18.5173 2.95875 19.4099C2.92743 19.6816 2.95405 19.9172 3.18346 20.0918C3.40581 20.2602 3.63287 20.2194 3.87323 20.1145C4.93569 19.6479 5.99736 19.1805 7.06921 18.7358C7.26025 18.6567 7.49827 18.6559 7.71123 18.6692C8.13872 18.6966 8.56464 18.7968 8.99056 18.7976C9.71792 18.7992 10.4453 18.7467 11.1476 18.7178C11.1985 19.3582 11.2118 20.0331 11.3112 20.6955C12.0926 25.8809 17.2107 29.4621 22.3554 28.4404C22.4846 28.4145 22.6412 28.3934 22.754 28.4419C23.944 28.9524 25.1286 29.4786 26.314 30H26.6656C26.9944 29.8011 27.0954 29.5279 27.0429 29.1372C26.9286 28.2767 26.8668 27.4092 26.7681 26.5464C26.7478 26.3663 26.8073 26.2622 26.9302 26.1448C29.4591 23.7388 30.4417 20.8027 29.8193 17.375ZM10.3803 17.5856C9.42979 17.6944 8.49261 17.6318 7.55699 17.4447C7.36986 17.4071 7.14359 17.429 6.96743 17.5011C6.15552 17.833 5.35456 18.1932 4.5497 18.5424C4.45261 18.5839 4.35396 18.6222 4.21773 18.6778C4.28897 17.9865 4.3336 17.3265 4.43147 16.6751C4.49802 16.2327 4.37432 15.9375 4.03452 15.6314C1.64497 13.4814 0.695255 10.7889 1.38033 7.6563C2.06541 4.52687 4.03373 2.42623 7.11228 1.51253C11.9282 0.0844398 16.8333 3.26007 17.5693 8.20906C18.2481 12.7775 14.9613 17.0618 10.3803 17.5856ZM25.9186 25.4707C25.6164 25.7361 25.5154 26.007 25.5663 26.3906C25.6556 27.0663 25.7151 27.7459 25.7926 28.4764C24.8726 28.0763 24.0035 27.706 23.1415 27.3192C22.8792 27.2018 22.6326 27.1806 22.35 27.2409C17.6695 28.2407 13.166 25.141 12.4496 20.4105C12.3588 19.8076 12.3972 19.1844 12.3745 18.5713C12.3682 18.4022 12.4418 18.3208 12.607 18.2566C15.7803 17.0149 17.7893 14.7459 18.5996 11.4293C18.6411 11.2602 18.7014 11.1686 18.8878 11.1287C23.5541 10.1304 28.1806 13.382 28.7568 18.1196C29.1138 21.0525 28.1414 23.518 25.9186 25.4707Z" fill="white"/>
<path d="M23.7507 23.1095C22.9427 20.8633 22.1402 18.6154 21.3345 16.3684C21.192 15.9714 20.9329 15.7671 20.5931 15.7726C20.2619 15.778 20.0137 15.9769 19.8743 16.3606C19.0585 18.6139 18.2442 20.868 17.43 23.1229C17.394 23.2223 17.372 23.3272 17.3556 23.3867C17.3642 23.6999 17.5631 23.934 17.8324 23.9951C18.0994 24.0553 18.3766 23.9144 18.4885 23.6279C18.6686 23.1644 18.8361 22.6962 18.9943 22.2256C19.0507 22.0581 19.1368 22.0048 19.3106 22.0064C20.1695 22.0142 21.0292 22.0158 21.8881 22.0056C22.0689 22.0032 22.1441 22.0721 22.1981 22.2342C22.3469 22.6774 22.4972 23.1213 22.6757 23.5527C22.7383 23.703 22.862 23.8549 22.9991 23.9418C23.2065 24.0741 23.4375 24.0217 23.6215 23.8596C23.8603 23.649 23.8517 23.3906 23.7507 23.1095ZM19.5134 20.8116C19.8712 19.8204 20.2235 18.8441 20.6017 17.7949C20.9759 18.8386 21.3236 19.8094 21.6829 20.8116H19.5134Z" fill="white"/>
<path d="M13.3243 12.4653C13.1278 12.2625 12.9141 12.0754 12.7003 11.8742C14.0916 9.82444 13.5271 7.45133 11.9612 6.19157C10.3914 4.92868 8.14673 4.99836 6.64191 6.3599C5.14726 7.71205 4.85914 9.98572 5.97484 11.6683C6.52916 12.5052 7.2894 13.0768 8.25556 13.3547C9.5709 13.7345 10.7782 13.4659 11.915 12.6697C12.1139 12.8811 12.294 13.0862 12.4882 13.2772C12.7567 13.5411 13.1129 13.556 13.3502 13.325C13.596 13.0854 13.5929 12.7433 13.3243 12.4653ZM11.8407 10.9981C11.5987 10.7467 11.3819 10.5103 11.1532 10.2856C10.869 10.0061 10.5159 9.99512 10.274 10.2457C10.0399 10.4892 10.054 10.8329 10.3257 11.1053C10.5582 11.3394 10.8056 11.5579 11.0499 11.7865C10.1761 12.5248 8.48809 12.6219 7.35047 11.5078C6.25513 10.4359 6.17292 8.64767 7.17118 7.49674C8.2078 6.3004 9.93263 6.11641 11.1759 7.06925C12.3785 7.99078 12.6949 9.74458 11.8407 10.9981Z" fill="white"/>
</svg>
