<svg width="18" height="14" viewBox="0 0 18 14" fill="none" xmlns="http://www.w3.org/2000/svg">
<path d="M17.9923 2.29673C17.9888 1.99041 17.7435 1.85213 17.5066 2.01466C17.3864 2.09675 17.2693 2.18434 17.1446 2.2747C16.9508 1.96838 16.765 1.67583 16.5802 1.38274C16.3129 0.957966 16.2633 0.946948 15.8622 1.22847C15.8532 1.23453 15.8392 1.23233 15.8121 1.23619C15.6133 0.921605 15.411 0.600411 15.2087 0.279768C14.9964 -0.0557507 14.8918 -0.0728296 14.5813 0.15691C13.6459 0.848882 12.641 1.28632 11.4888 1.29624C10.6611 1.3034 9.93999 1.64608 9.41122 2.38048C9.25799 2.59258 9.13581 2.83114 8.99861 3.05867C8.99511 3.05812 8.98509 3.05978 8.98309 3.05647C8.95154 2.99752 8.92 2.93857 8.89095 2.87797C8.50338 2.07801 7.90751 1.56675 7.10233 1.38769C6.73779 1.30671 6.35873 1.30836 5.98669 1.26704C5.02978 1.16126 4.18755 0.732084 3.40189 0.147544C3.10195 -0.0750333 3.0003 -0.0557507 2.792 0.273707C2.58669 0.599309 2.38089 0.925461 2.17559 1.25051C2.13503 1.22572 2.113 1.2136 2.09197 1.19927C1.74746 0.959619 1.67085 0.976698 1.44001 1.34252C1.24472 1.65214 1.04944 1.96177 0.852147 2.27525C0.776035 2.22126 0.712942 2.17718 0.65035 2.13256C0.58225 2.08407 0.516654 2.02953 0.445049 1.98821C0.253768 1.87913 0.0144162 1.99758 0.0099096 2.23117C-0.000605843 2.77329 -0.0126235 3.31927 0.0309405 3.85808C0.0745045 4.39634 0.40499 4.75279 0.797066 5.04258C2.29426 6.15051 3.78996 7.26064 5.28616 8.37022C5.61765 8.61539 5.94362 8.87102 6.28463 9.09966C6.36975 9.1564 6.51897 9.16522 6.6101 9.12224C6.68571 9.08588 6.77084 8.93217 6.75832 8.84733C6.74079 8.73108 6.65567 8.59776 6.56403 8.52834C5.69476 7.87107 4.81747 7.22593 3.94269 6.57693C2.95373 5.84364 1.96578 5.10925 0.97733 4.3754C0.788553 4.23492 0.637832 4.05421 0.619805 3.79858C0.599776 3.50879 0.615299 3.21624 0.615299 2.8967C3.23114 4.79687 5.82795 6.68326 8.4503 8.58839C8.37219 8.64734 8.32112 8.6859 8.26904 8.72392C6.38327 10.0941 4.498 11.4654 2.61123 12.8333C2.46952 12.9358 2.35986 13.0509 2.41094 13.2515C2.46451 13.4608 2.61574 13.4994 2.794 13.4989C3.70634 13.495 4.61818 13.4933 5.53002 13.5C5.70678 13.5016 5.85349 13.4548 6.00071 13.3446C6.94009 12.6416 7.88598 11.9485 8.82536 11.2455C8.95054 11.1519 9.03667 11.1409 9.16836 11.24C10.1218 11.9573 11.0807 12.6653 12.0411 13.371C12.1257 13.4327 12.2329 13.4906 12.33 13.4917C13.3109 13.5005 14.2914 13.4967 15.2723 13.4967C15.4286 13.4967 15.5377 13.4168 15.5818 13.2526C15.6238 13.0945 15.5648 12.9711 15.4446 12.8802C15.419 12.8609 15.393 12.8416 15.367 12.8229C14.721 12.3535 14.0746 11.8846 13.4286 11.4152C12.8658 11.0064 12.307 10.5916 11.7366 10.1966C11.6485 10.1354 11.4858 10.1183 11.3981 10.1679C11.318 10.2136 11.2544 10.3784 11.2569 10.488C11.2589 10.5784 11.3536 10.6908 11.4337 10.7497C12.295 11.3838 13.1612 12.0097 14.026 12.6377C14.1006 12.6917 14.1732 12.749 14.2894 12.8366C13.6399 12.8366 13.0476 12.8394 12.4557 12.8328C12.3936 12.8322 12.3265 12.7887 12.2719 12.7485C11.613 12.2631 10.956 11.7744 10.2985 11.2869C10.0512 11.1034 9.80379 10.9199 9.54241 10.726C9.61101 10.672 9.65958 10.6318 9.70965 10.5949C11.0972 9.5663 12.4852 8.53825 13.8733 7.51021C14.9814 6.68877 16.089 5.86678 17.1982 5.04699C17.6383 4.72194 17.9628 4.30874 17.9883 3.69886C18.0078 3.23222 17.9983 2.76393 17.9923 2.29673ZM3.19359 0.797094C3.34731 0.900118 3.49252 1.00094 3.64074 1.0957C4.48198 1.63506 5.3813 1.93808 6.36174 1.94744C7.63361 1.96011 8.48135 2.79643 8.66061 4.19249C8.67614 4.3148 8.68765 4.43821 8.69717 4.56107C8.71369 4.77924 8.82185 4.90816 8.99511 4.90981C9.16836 4.91146 9.2655 4.77924 9.30105 4.56713C9.36565 4.18478 9.40971 3.78811 9.5364 3.42945C9.87289 2.47854 10.5524 1.97664 11.4592 1.96232C12.6815 1.94303 13.7771 1.55683 14.7986 0.792686C14.9709 1.0654 15.1391 1.33205 15.3179 1.61523C15.2528 1.66592 15.1997 1.70944 15.1446 1.74966C13.1452 3.20357 11.1453 4.65638 9.14683 6.11084C9.0592 6.1742 8.9936 6.21828 8.88244 6.13674C6.83844 4.64536 4.79143 3.15949 2.74493 1.67253C2.7294 1.66096 2.71638 1.64608 2.67983 1.61247C2.85258 1.33866 3.01883 1.07476 3.19359 0.797094ZM1.45703 2.7193C1.42649 2.69671 1.39895 2.66972 1.35639 2.6339C1.52964 2.35954 1.69288 2.1017 1.86463 1.8312C1.93924 1.88298 2.00234 1.9254 2.06393 1.97003C4.27267 3.57435 6.48392 5.17536 8.68765 6.78794C8.91599 6.95487 9.08574 6.95102 9.31157 6.78574C11.5158 5.17371 13.7261 3.57214 15.9353 1.96728C15.9964 1.9232 16.059 1.88133 16.1311 1.8312C16.3043 2.10446 16.4676 2.36285 16.6408 2.63611C16.5873 2.67798 16.5387 2.71875 16.4881 2.75566C14.045 4.53077 11.6019 6.30532 9.16085 8.08373C9.04768 8.16637 8.96807 8.17905 8.84789 8.09145C6.38627 6.29761 3.92115 4.50928 1.45703 2.7193ZM17.3844 3.75065C17.3679 4.03052 17.2177 4.23106 17.0104 4.38422C16.2392 4.95719 15.4701 5.53181 14.6985 6.10368C11.7156 8.31402 8.73272 10.5244 5.74734 12.7298C5.66121 12.7931 5.54254 12.8306 5.43838 12.8322C4.88257 12.8421 4.32675 12.8366 3.7514 12.7986C8.28606 9.50459 12.8212 6.21056 17.3879 2.89395C17.3879 3.20522 17.4004 3.47904 17.3844 3.75065Z" fill="#DFDFDF"/>
</svg>
