<svg width="26" height="30" viewBox="0 0 26 30" fill="none" xmlns="http://www.w3.org/2000/svg">
<path d="M25.9988 2.76991C25.9988 1.07647 24.9126 0.000999531 23.2024 0.000999531C16.4026 -0.000834185 9.6028 8.2673e-05 2.803 0.00191639C2.56068 0.00283325 2.31279 0.00558382 2.0779 0.0541773C0.804093 0.3219 0.00378799 1.33594 0.00193113 2.68648C-0.00178258 6.79216 0.0010027 10.8988 0.0010027 15.0045C0.0010027 19.0762 7.42743e-05 23.148 0.00285956 27.2198C0.00285956 27.4701 0.00657327 27.7268 0.0567084 27.9697C0.427151 29.7714 2.66002 30.6616 4.30705 29.4294C7.05705 27.372 9.83955 25.3567 12.6081 23.3231C13.0835 22.9747 13.103 22.9738 13.5663 23.3176C16.2801 25.3283 18.9966 27.3344 21.7067 29.3496C22.6026 30.0162 23.5608 30.1748 24.5691 29.6742C25.5671 29.1782 25.9998 28.3227 25.9998 27.2353C25.9998 19.0808 26.0007 10.9254 25.9988 2.76991ZM23.8384 27.1867C23.8356 27.3756 23.7418 27.6158 23.6044 27.7378C23.3946 27.9221 23.2006 27.7066 23.0297 27.5792C20.3141 25.5703 17.6003 23.5597 14.8865 21.549C13.6498 20.6321 12.5441 20.6321 11.299 21.5508C8.58896 23.5487 5.87981 25.5465 3.16973 27.5434C3.07688 27.6122 2.98776 27.6864 2.88934 27.746C2.60896 27.9138 2.31929 27.7836 2.26822 27.4627C2.24966 27.3509 2.25894 27.2344 2.25894 27.1198C2.25801 23.0701 2.25894 19.0203 2.25894 14.9705C2.25894 10.9437 2.25801 6.91686 2.25894 2.89002C2.25894 2.24913 2.31 2.19687 2.94133 2.19687H23.3101C23.7669 2.19687 23.8486 2.29039 23.8486 2.82034C23.8495 9.68393 23.8495 16.5484 23.8495 23.412C23.8495 24.67 23.8588 25.9288 23.8384 27.1867Z" fill="white"/>
</svg>
